HIERARCHY
ROOT Hips
{
    OFFSET 0.0 0.0 0.0
    CHANNELS 6 Xposition Yposition Zposition Zrotation Xrotation Yrotation
    JOINT LHipJoint
    {
        OFFSET 0.1 0.0 0.0
        CHANNELS 3 Zrotation Xrotation Yrotation
        JOINT LeftHip
        {
            OFFSET 0.08717261254787445 0.0 0.0
            CHANNELS 3 Zrotation Xrotation Yrotation
            JOINT LeftKnee
            {
                OFFSET 0.0 0.0 -0.41566795110702515
                CHANNELS 3 Zrotation Xrotation Yrotation
                JOINT LeftAnkle
                {
                    OFFSET 0.0 0.0 -0.3428518772125244
                    CHANNELS 3 Zrotation Xrotation Yrotation
                    End Site
                    {
                        OFFSET 0.0 -0.1 0.0
                    }
                }
            }
        }
    }
    JOINT lowerback
    {
        OFFSET 0.0 0.0 0.1
        CHANNELS 3 Zrotation Xrotation Yrotation
        JOINT Chest
        {
            OFFSET 0.0 0.0 0.22092345356941223
            CHANNELS 3 Zrotation Xrotation Yrotation
            JOINT Chest2
            {
                OFFSET 0.0 0.0 0.25406765937805176
                CHANNELS 3 Zrotation Xrotation Yrotation
                JOINT LeftCollar
                {
                    OFFSET 0.1 0.0 0.0
                    CHANNELS 3 Zrotation Xrotation Yrotation
                    JOINT LeftShoulder
                    {
                        OFFSET 0.1212095320224762 0.0 0.0
                        CHANNELS 3 Zrotation Xrotation Yrotation
                        JOINT LeftElbow
                        {
                            OFFSET 0.288747638463974 0.0 0.0
                            CHANNELS 3 Zrotation Xrotation Yrotation
                            JOINT LeftWrist
                            {
                                OFFSET 0.18348661065101624 0.0 0.0
                                CHANNELS 3 Zrotation Xrotation Yrotation
                                End Site
                                {
                                    OFFSET 0.1 0.0 0.0
                                }
                            }
                        }
                    }
                }
                JOINT Neck
                {
                    OFFSET 0.0 0.0 0.1
                    CHANNELS 3 Zrotation Xrotation Yrotation
                    JOINT Head
                    {
                        OFFSET 0.0 0.0 0.13597898185253143
                        CHANNELS 3 Zrotation Xrotation Yrotation
                        End Site
                        {
                            OFFSET 0.0 0.0 0.13313722610473633
                        }
                    }
                }
                JOINT RightCollar
                {
                    OFFSET -0.1 0.0 0.0
                    CHANNELS 3 Zrotation Xrotation Yrotation
                    JOINT RightShoulder
                    {
                        OFFSET -0.1212095320224762 0.0 0.0
                        CHANNELS 3 Zrotation Xrotation Yrotation
                        JOINT RightElbow
                        {
                            OFFSET -0.288747638463974 0.0 0.0
                            CHANNELS 3 Zrotation Xrotation Yrotation
                            JOINT RightWrist
                            {
                                OFFSET -0.18348661065101624 0.0 0.0
                                CHANNELS 3 Zrotation Xrotation Yrotation
                                End Site
                                {
                                    OFFSET -0.1 0.0 0.0
                                }
                            }
                        }
                    }
                }
            }
        }
    }
    JOINT RHipJoint
    {
        OFFSET -0.1 0.0 0.0
        CHANNELS 3 Zrotation Xrotation Yrotation
        JOINT RightHip
        {
            OFFSET -0.08717261254787445 0.0 0.0
            CHANNELS 3 Zrotation Xrotation Yrotation
            JOINT RightKnee
            {
                OFFSET 0.0 0.0 -0.41566795110702515
                CHANNELS 3 Zrotation Xrotation Yrotation
                JOINT RightAnkle
                {
                    OFFSET 0.0 0.0 -0.3428518772125244
                    CHANNELS 3 Zrotation Xrotation Yrotation
                    End Site
                    {
                        OFFSET 0.0 -0.1 0.0
                    }
                }
            }
        }
    }
}
MOTION
Frames: 8
Frame Time: 0.03333333333333333
-8.793862434686162e-06 0.8008338212966919 -2.0267852960387245e-05 -112.95897202979145 -75.39989702811992 -114.11960761484646 -7.95138670365879e-16 -6.361109362927032e-15 -4.4139062980501586e-32 -0.785748356693535 -12.23039994090148 0.8317902690802245 0.6283111653578998 7.898100992782015 4.311858551226155 0.0 -6.3611093629270335e-15 0.0 -7.95138670365879e-16 -6.361109362927032e-15 -4.4139062980501586e-32 -0.3072922515222493 -4.8118476375892225 -2.816067936175689 3.2295364141529372 -4.785681530909981e-06 3.600648867991479e-08 -3.9756933518293955e-16 4.9696166897867443e-17 1.7241821476758432e-34 -20.983236959027135 -50.084380672947034 -4.523710302909871 -84.18390898534142 8.194376174170686e-08 1.7567573464718064e-06 -1.3914926731402882e-15 3.1805546814635164e-15 -6.361109362927033e-15 -3.9756933518293955e-16 4.9696166897867443e-17 1.7241821476758432e-34 5.837343772943889 -2.1154304308789453 14.443122740862641 -3.9756933518293955e-16 4.9696166897867443e-17 1.7241821476758432e-34 -39.132296230929356 -5.266188379846766 -51.36670616204687 35.61307969740446 1.8813912289356348e-06 7.814638716669092e-07 1.5902773407317584e-15 7.951386703658792e-16 -3.1805546814635168e-15 -7.95138670365879e-16 -6.361109362927032e-15 -4.4139062980501586e-32 -0.585584813903661 -9.06503069148059 0.8705419242793662 1.426062731941649 17.173016311620025 2.6057898680803637 1.590277340731758e-15 -1.1034765745125397e-32 -7.95138670365879e-16
-6.024194590281695e-06 0.8008332848548889 -1.918559064506553e-05 -111.47492835753155 -74.08256748665244 -112.09065884845157 1.5902773407317582e-15 -1.9878466759146977e-16 2.758691436281349e-33 -0.8330949408659234 -13.367119595708573 0.44569827390074895 0.6684222978266522 9.40234205818107 3.482312509454515 3.1805546814635168e-15 -4.4139062980501586e-32 -1.5902773407317584e-15 1.5902773407317582e-15 -1.9878466759146977e-16 2.758691436281349e-33 -0.2705212822871252 -4.379398431697351 -2.369384123791342 3.0344508813011046 -2.2188933074025935e-06 2.7408664304136574e-07 0.0 6.361109362927033e-15 0.0 -7.8201171380556795 -58.75423901941683 11.517378352435927 -88.61116443622006 1.4701309698427335e-06 -9.085452610715686e-07 8.348956038841732e-15 -3.1805546814635168e-15 2.3173008064763334e-31 0.0 6.361109362927033e-15 0.0 7.3894482449548615 -1.3796950611903043 13.44733172044013 0.0 6.361109362927033e-15 0.0 -41.77525508749005 -7.649196575539131 -51.44596368136525 51.01007664323978 -7.515277856931215e-07 -5.850448523775017e-08 3.1805546814635176e-15 0.0 0.0 1.5902773407317582e-15 -1.9878466759146977e-16 2.758691436281349e-33 -0.6799426922923022 -10.826523301347933 0.3794497904254115 1.2435103249409474 17.18893834048317 1.0929103766000194 0.0 6.4605016967227685e-15 0.0
-3.874389221891761e-06 0.8008330464363098 -1.8489736248739064e-05 -112.03653124906903 -73.24954776429634 -112.63386612105012 3.1805546814635168e-15 -6.3611093629270335e-15 -1.5902773407317582e-15 -0.7796173233119889 -13.647685320575565 0.7358584183900029 0.7139290773110497 10.049827330608323 2.616797688032065 -8.827812596100317e-32 -6.3611093629270335e-15 -1.5902773407317584e-15 3.1805546814635168e-15 -6.3611093629270335e-15 -1.5902773407317582e-15 -0.20906800020825303 -3.694945245100119 -1.008324221875096 3.319390088721608 7.83839155103904e-07 1.340856866807539e-07 1.5902773407317582e-15 6.361109362927033e-15 -8.827812596100317e-32 8.581837728509074 -60.32229336183771 30.074558757487697 -94.0014833455197 -2.4549298149768843e-06 -6.184107833910233e-07 -7.951386703658791e-16 3.1805546814635168e-15 -3.1805546814635168e-15 1.5902773407317582e-15 6.361109362927033e-15 -8.827812596100317e-32 7.998248226410065 1.5001145829082054 12.161751388927502 1.5902773407317582e-15 6.361109362927033e-15 -8.827812596100317e-32 -42.25357481965565 -10.889258613323355 -52.037496078632394 69.71985211154352 1.223464965981523e-06 -1.0939296389666634e-06 0.0 -3.379339349054987e-15 0.0 3.1805546814635168e-15 -6.3611093629270335e-15 -1.5902773407317582e-15 -0.6920052360044946 -11.977125469825804 0.6068092066163645 1.195087903418474 16.78805627732354 -0.637489295238196 1.5902773407317584e-15 1.1034765745125397e-32 7.951386703658792e-16
-5.148187483428046e-06 0.8008319139480591 -1.909925413201563e-05 -110.73637853482471 -72.65986102390507 -111.35515958518411 0.0 -6.5598940305185035e-15 0.0 -0.5835138662812115 -14.320703433017488 0.839236398520742 0.6453704470780655 11.455746547778773 2.4931241338293995 -1.5902773407317584e-15 -6.1623246953355635e-15 -8.551943452472182e-32 0.0 -6.5598940305185035e-15 0.0 -0.13192744837477433 -3.2667240620211535 0.15025114180088592 2.7348313396506647 7.853089771042095e-07 5.728984068954812e-07 1.5902773407317582e-15 -9.939233379573489e-17 1.3793457181406746e-33 22.753329006130564 -56.37800596366706 42.90101114890801 -101.05974750233973 -7.730729851770435e-07 -1.6266864734211333e-06 -3.180554681463516e-15 0.0 0.0 1.5902773407317582e-15 -9.939233379573489e-17 1.3793457181406746e-33 9.099541790323563 3.910998678703705 10.836531977053307 1.5902773407317582e-15 -9.939233379573489e-17 1.3793457181406746e-33 -40.7933830998077 -14.112994733507838 -50.98697510314094 92.06428228362289 6.729607896128015e-07 -3.6761396774754554e-06 -6.3611093629270335e-15 -1.7655625192200634e-31 3.1805546814635168e-15 0.0 -6.5598940305185035e-15 0.0 -0.5444227432105578 -13.12119132257709 0.49501525774201577 0.8484405953932355 16.245877927927594 -1.9075850420103724 2.3854160110976376e-15 3.310429723537619e-32 1.5902773407317584e-15
-4.764041477756109e-06 0.8008320927619934 -1.9167557184118778e-05 -111.90649287500872 -72.30249868685432 -112.56938448779702 0.0 0.0 0.0 -0.28884271533977923 -14.587857543129466 0.9850903569270052 0.4710612917700183 12.5340446945569 1.5921769500691487 -1.7655625192200634e-31 1.2722218725854067e-14 1.5902773407317584e-15 0.0 0.0 0.0 -0.04817124702199399 -2.4258317644831635 2.1648061649361487 2.553596294603022 1.827457635060118e-06 8.112363871980614e-07 1.5902773407317584e-15 9.939233379573487e-17 -1.5902773407317584e-15 31.118742593801922 -50.902535038262165 50.00305335802965 -109.08582132119821 -4.876773618583684e-06 2.120909996262634e-06 -7.156248033292914e-15 -1.9862578341225716e-31 3.1805546814635168e-15 1.5902773407317584e-15 9.939233379573487e-17 -1.5902773407317584e-15 7.96774053682522 4.7694832368364635 8.312121913074224 1.5902773407317584e-15 9.939233379573487e-17 -1.5902773407317584e-15 -40.92299663750685 -19.99591434242438 -52.638292639722515 109.23875891291821 1.9475956180757957e-06 3.5188592871293077e-06 -7.951386703658792e-16 -2.2069531490250793e-32 3.1805546814635168e-15 0.0 0.0 0.0 -0.2796565915189039 -13.519307224095787 0.9121387509562529 0.6298647580191317 16.515897309182495 -4.110874448572425 2.3854160110976376e-15 -6.3611093629270335e-15 1.3241718894150476e-31
-4.28835664934013e-06 0.8008307218551636 -1.8954306142404675e-05 -111.66081472110672 -72.17905066134543 -112.02789659074264 -8.551943452472182e-32 6.162324695335563e-15 1.5902773407317582e-15 -0.01913949406289518 -14.88617877807549 0.870143561567205 0.21336235791728952 12.904633200537459 0.6727927999438978 -8.827812596100317e-32 6.3611093629270335e-15 1.5902773407317584e-15 -8.551943452472182e-32 6.162324695335563e-15 1.5902773407317582e-15 -0.004415873609921362 -2.5680096329355644 3.358067638345599 1.860061115613568 4.166278380209487e-06 -3.289752313044963e-07 0.0 0.0 0.0 37.05056119747109 -45.296030003206695 53.09624559214826 -112.83292791044968 -5.400464833124762e-06 5.524508666696784e-07 2.3854160110976376e-15 -3.1805546814635168e-15 3.1805546814635168e-15 0.0 0.0 0.0 8.64261299242739 3.685164277291154 6.285513000638814 0.0 0.0 0.0 -42.46093209647536 -26.600152821103684 -54.71074166672816 118.86056341993846 7.805023670909334e-07 -3.819735887229991e-06 -1.1927080055488188e-15 -1.5902773407317584e-15 -3.1805546814635168e-15 -8.551943452472182e-32 6.162324695335563e-15 1.5902773407317582e-15 -0.030390437372193314 -13.779555206171015 0.7238223289529065 0.25487521004608177 16.399019831422958 -4.757936350898534 0.0 6.559894030518502e-15 0.0
-5.511365088750608e-06 0.8008280992507935 -1.843482459662482e-05 -114.14546643468519 -72.89834595421644 -114.46132362144866 -8.827812596100317e-32 -6.361109362927033e-15 -1.5902773407317582e-15 0.20503986646673694 -16.07509171795936 1.5707519032578428 0.21026551323329795 14.339686452558718 -0.5277743430041281 -1.5902773407317584e-15 1.987846675914698e-16 -1.5902773407317584e-15 -8.827812596100317e-32 -6.361109362927033e-15 -1.5902773407317582e-15 0.02456153807336573 -2.0679541064217832 4.564408307744695 1.8175638745272462 -5.9773003563611e-07 1.353218752795676e-06 0.0 6.4605016967227685e-15 0.0 40.370338465721815 -38.02600861107558 55.83803211952984 -117.87703518716339 -1.2788244464150517e-06 -1.8021779447356268e-06 1.4312496066585827e-14 0.0 0.0 0.0 6.4605016967227685e-15 0.0 8.78669705648369 4.178989215024032 5.6968895947305 0.0 6.4605016967227685e-15 0.0 -44.383828106604476 -26.946328920015073 -58.396310679079235 126.53346717543907 -1.3671564287642384e-07 -6.705498866345277e-07 0.0 0.0 -3.1805546814635164e-15 -8.827812596100317e-32 -6.361109362927033e-15 -1.5902773407317582e-15 0.170106818316174 -14.674987711739021 1.7231072314901907 0.3193447608595465 16.76033959213971 -6.7304021315797495 0.0 0.0 0.0
-5.320964191923849e-06 0.8008241057395935 -1.7213129467563704e-05 -116.89684130821698 -73.95238810848434 -116.95471053509016 -7.951386703658792e-16 -1.1034765745125397e-32 1.5902773407317584e-15 0.1577800015762703 -15.605987624132338 1.4274628610143918 0.20344941038539646 13.683402344040685 -0.39838842015620785 7.951386703658792e-16 -6.3611093629270335e-15 4.4139062980501586e-32 -7.951386703658792e-16 -1.1034765745125397e-32 1.5902773407317584e-15 0.013740593709888215 -1.47797347749417 5.467299975598709 0.9870955078667732 -1.783409461703897e-06 5.031359493411769e-07 -1.5902773407317584e-15 2.2069531490250793e-32 -1.5902773407317584e-15 42.04748087395019 -30.070115104098637 56.24537061670444 -121.2290402620221 -5.181438130665871e-07 -2.023567388412842e-06 9.14409470920761e-15 -3.1805546814635168e-15 2.537996121378841e-31 -1.5902773407317584e-15 2.2069531490250793e-32 -1.5902773407317584e-15 6.809642031987996 4.144731601503198 5.456465074052311 -1.5902773407317584e-15 2.2069531490250793e-32 -1.5902773407317584e-15 -42.48396412645815 -25.962356676821315 -58.39042243248111 129.52137290109795 -1.2575255878395134e-06 3.696812712555234e-07 -7.951386703658791e-16 -3.1805546814635164e-15 -2.2069531490250793e-32 -7.951386703658792e-16 -1.1034765745125397e-32 1.5902773407317584e-15 0.12457992098647891 -13.96749824371434 1.466005952941896 0.2684873802799193 15.687111420524536 -6.183701980680528 7.951386703658794e-16 0.0 0.0
